<?xml version="1.0" encoding="utf-8"?>
<!-- Generator: Adobe Illustrator 23.0.1, SVG Export Plug-In . SVG Version: 6.00 Build 0)  -->
<svg version="1.1" xmlns="http://www.w3.org/2000/svg" xmlns:xlink="http://www.w3.org/1999/xlink" x="0px" y="0px"
	 viewBox="0 0 800 600" style="enable-background:new 0 0 800 600;" xml:space="preserve">
<style type="text/css">
	.st0{fill:none;stroke:#000000;stroke-width:0.5;stroke-linecap:round;stroke-linejoin:round;}
	.st1{font-family:'Roboto-Regular';}
	.st2{font-size:14px;}
</style>
<g id="Sudan">
	<path class="st0" d="M124.044,492.044l-5.454-7.997l-0.083-1.067l1.501-5.494l0.242-0.39l0.606-0.671l0.107-0.425l0.02-0.788
		l0.127-0.773l0.238-0.701l0.646-1.374l0.17-0.693l-0.074-1.135l-0.033-0.512l-0.97-2.9l-0.519-2.773l-0.551-0.475l-0.899-0.023
		l-3.648,0.389l-0.38-0.168l-0.012-1.178l-0.107-0.353l-0.986-0.93l-3.085-1.055l-1.319-0.656l-1.37-1.323l-1.172-1.656
		l-0.768-1.838l-0.178-1.874l2.139-12.061l0.677-1.986l0.115-0.69l-0.044-0.609l2.646-7.939l-2.113-14.069l10.568-11.92
		l11.977-17.727l2.818-1.448l4.579-0.362l4.431-4.856l1.063,0.123l2.117,0.037l1.089,0.184l1.135,0.493l1.089,0.747l1.135,1.068
		l1.149,0.737l1.129,0.572l4.08,1.334l2.865,1.313l1.143,0.158l1.654-0.171l1.701-0.57l6.076-3.52l6.256-2.423l1.564-0.346
		l1.416-0.125l1.426,0.049l1.208,0.311l0.867,0.548l0.65,0.981l0.202,0.901l-0.059,0.694l-0.345,0.809l-0.572,0.979l-1.515,1.924
		l-5.275,5.122l-0.814,1.151l-0.531,1.307l-0.012,1.124l0.507,0.901l1.028,0.715l1.41,0.382l7.058,0.501l-20.158,20.13l-2.248,2.932
		l-0.715,1.518l-0.071,1.23l-1.643,14.491l-7.75,25.905l-8.102,5.389l-9.863,6.464L124.044,492.044z"/>
	<path class="st0" d="M141.567,551.688l0.438-0.658l0.582-0.234l1.24,0.052l0.618-0.108l0.444-0.276l0.84-0.856l1.481-1.87
		l0.507-0.395l0.341-0.464l-0.056-0.567l-0.392-1.192l0.051-0.689l0.958-3.021l-0.02-0.258l-0.21-0.314l-0.226-0.088l-0.285,0.012
		l-0.289-0.491l-0.107-0.367l0.051-1.21l-0.079-0.511l-0.372-0.963l-0.024-0.425l0.475-1.123l1.418-2.191l0.519-1.149l0.19-1.49
		l-1.121-6.717l-0.796-1.739l-6.377-10.351l-6.377-10.36l-6.967-6.812l-3.98-2.82l11.181-16.433l9.863-6.464l8.102-5.389
		l7.75-25.905l1.643-14.491l0.071-1.23l0.715-1.518l2.248-2.932l20.158-20.13l11.684,1.718l6.38,0.24l6.018-0.576l2.161,15.116
		l-0.704,10.826l-3.875,5.409l0.352,26.642l9.511,10.423l6.341,5.387l5.636,14.713l3.523,10.754l-0.163,4.218l-0.416,0.039
		l-1.713,0.454l-0.804,0.396l-0.339,0.094l-0.309,0.036l-1.539-0.06l-0.222,0.036l-0.606,0.169l-0.873,0.143l-1.238,0.012
		l-0.22,0.033l-1.648,0.411l-2.83,1.001l-0.119,0.018l-0.481,0.139l-0.434,0.069l-1.541-0.054l-0.463,0.042l-0.436,0.082
		l-0.57,0.196l-0.362,0.169l-0.392,0.125l-0.457,0.048l-0.245,0.003l-0.452,0.051l-0.196,0.06l-0.713,0.338l-0.208,0.036
		l-0.222,0.003l-0.416-0.06l-0.214,0.018l-0.368,0.139l-0.208,0.048l-0.232-0.006l-0.226-0.039l-0.22-0.069l-0.386-0.172
		l-0.21-0.069l-0.457-0.079l-0.261,0.027l-0.273,0.066l-0.345,0.142l-0.255,0.033l-0.448-0.057l-0.22,0.006l-0.927,0.362
		l-0.44,0.073l-0.982-0.079l-0.41,0.086l-0.558,0.223l-0.602,0.179l-0.238,0.099l-0.273,0.248l-0.38,0.465l-1.915,4.163
		l-0.101,0.414l-0.03,0.323l0.083,0.43l0.059,0.196l0.315,0.733l0.119,0.399l0.024,0.22l-0.012,0.241l-0.048,0.229l-0.416,1.144
		l-1.004,2.089l-0.22,0.68l-0.333,0.71l-0.323,0.443l-0.517,0.534l-1.051,1.44l-0.501,0.564l-1.325,0.809l-1.321,1.099l-0.327,0.196
		l-0.333,0.154l-0.416,0.075l-0.362,0.027l-0.139,0.034l-0.148,0.154l-0.131,0.247l-0.143,0.797l0.065,10.348l-0.071,0.458
		l-0.279,0.89l-2.349,2.653l-1.111,1.022l-0.305,0.449l-0.261,0.7l-0.737,7.419l-0.042,0.206l-0.148,0.376l-3.474,5.916
		l-0.232,0.582l-0.036,0.253v4.136l-0.214,0.259l-0.38,0.211l-1.879,0.632l-3.485,0.367l-0.873,0.181l-4.186,2.656l-1.16,0.55
		l-2.206,1.691l-0.232,0.313l-0.083,0.551l-0.171,0.245L166.522,570l-4-0.668l-1.085,0.182l-0.737-0.11l-1.525-0.637l-2.131,0.219
		l-2.424-0.556l-1.323,0.034l-1.204,0.558l-0.622,0.188l-1.232-0.337l-1.228,0.026l-0.499-0.199l-0.574-0.405l-0.602-0.257
		l-0.65-0.074l-0.705,0.142l-0.535,0.302l-0.903,0.694l-0.566,0.128l-0.784-0.359l-0.582-0.847l-0.317-1.038l0.02-0.932l0.503-1.01
		l1.58-1.791l0.65-1.068l0.471-2.206l0.059-1.35l-0.281-0.839l-0.673-0.032l-1.422,1.405l-1.049,0.084l-1.022-0.592l-0.503-0.79
		l-0.099-0.946l0.844-4.937L141.567,551.688z"/>
	<path class="st0" d="M638.868,370.889l-1.591,3.95l-0.139,0.793l-0.135,2.231l-0.352,1.116l-5.691,8.251l-3.703,12.958l0.055,0.752
		l0.305,0.627l0.123,0.336l0.012,0.337l-0.345,0.578l-0.57,0.573l-0.444,0.672l0.036,0.872l0.895,1.567l0.166,0.586l0.008,0.959
		l-0.753,4.366l-0.329,0.771l-0.598,0.242l-1.046-0.29l-0.349-0.191l-0.222-0.167l-0.253-0.13l-0.467-0.079l-0.325,0.012
		l-11.557,1.681l-0.982,0.327l-0.053,0.025l-0.02-0.006l-0.048-0.015l-12.726-2.876l-3.699-1.492l-1.493-0.964l-1.147-1.017
		l-1.024-1.137l-0.576-0.515l-8.129-4.727l-0.428-0.36l-1.17-1.385l-1.945-1.873l-1.368-1.855l-0.689-0.666l-1.559-1.194
		l-0.911-0.557l-0.665-0.231l-0.428-0.107l-3.592-1.574l-0.529-0.324l-0.285-0.246l-0.267-0.279l-1.03-1.328l-0.469-0.435
		l-0.404-0.263l-0.428-0.195l-1.452-0.482l-1.642-0.725l-0.856-0.524l-2.925-3.831l-2.164-4.272l-1.054-1.641l-0.16-0.366
		l-0.107-0.399l-0.024-0.417l0.107-0.392l0.202-0.324l0.564-0.505l0.323-0.224l0.297-0.256l0.261-0.284l0.184-0.344l0.101-0.391
		v-0.408l-0.053-0.261l-0.143-0.273l-0.244-0.053l-0.376-0.002l-0.428,0.085l-0.398,0.022l-0.38-0.114l-0.309-0.442l-0.261-0.104
		l-0.208-0.003l-0.661,0.351l-0.463,0.029l-0.475-0.141l-0.697-0.537l-0.392-0.241l-0.238-0.037l-0.232,0.351l-0.202-0.003
		l-0.339-0.351l-1.333-2.156l-0.249-0.196l-0.339-0.123l-0.22-0.246l-0.172-0.366l-0.184-0.507l-0.394-0.638v-0.225l0.115-0.171
		l0.214-0.073l0.125-0.059l0.101-0.112l-0.018-0.204l-0.131-0.269l-0.345-0.469l-1.659-1.361l-0.392-0.424l-0.228-0.378
		l-0.063-0.266l-0.055-0.81l-0.036-0.19l-0.071-0.126l-0.469-0.531l-0.226-0.502l-1.238-2.045l-0.196-0.267l-0.624-0.64
		l-0.107-0.198l0.042-0.175l0.083-0.063l0.315-0.083l0.042-0.095l-0.036-0.12l-0.214-0.198l-0.244-0.168l-0.285-0.297l-0.208-0.422
		l-0.16-0.673l0.867-2.049l12.292-21.628l-0.065-1.529l-0.309-0.828l-5.489-7.941l-2.664-5.678l-0.107-0.151l-0.131-0.145
		l-6.286-3.285l-7.446-2.536l-1.194-0.747l-3.408-3.801l1.885-3.843l3.319-4.675l1.776-1.614l1.553-0.782l1.107-0.012l8.551,3.029
		l13.159,2.112l5.47,1.308l4.586,1.669l6.194,3.292l2.057,1.369l1.66,1.438l1.463,1.556l2.081,2.702l0.737,1.197l5.198,12.857
		l8.747,9.783l1.895,1.35l1.701,0.194l2.188-0.389l17.906-6.573l3.079-0.592l13.29-0.341l2.212,0.298l0.01,0.001l0.451,3.842
		l0.582,4.974l0.578,4.904l0.847,7.271l-3.442,10.761l-0.17,0.841l0.016,1.004l0.21,0.969l0.665,1.972l0.107,1.968L638.868,370.889z
		"/>
	<path class="st0" d="M589.381,445.761l-0.839,0.324l-1.481,0.969l-0.586,0.757l-0.523,0.9l-0.416,0.959l-0.269,0.931l-0.024,0.791
		l0.289,1.482l-0.071,1.599l0.277,0.805l0.8,1.593l0.095,0.732l-0.143,0.77l-4.828,10.715l-0.111,0.845l0.372,1.06l0.669,0.751
		l0.487,0.8l-0.147,1.216l-2.531,7.47l-0.028,0.429l0.368,0.509l1.137,0.839l0.21,0.586l-0.293,1.336l-0.646,0.931l-2.071,1.588
		l-0.697,0.664l-0.159,0.465l-0.004,0.473l-0.23,0.694l-0.491,0.648l-0.42,0.053l-0.467-0.138l-0.646,0.065l-0.471,0.416
		l-0.511,1.198l-0.309,0.312l-0.4-0.151l-0.055-0.569l0.154-1.173l-0.242-0.591l-0.507-0.447l-1.125-0.729l-4.638-4.105l-0.471-0.19
		l-0.649,0.248l-4.618,3.204l-0.661,0.579l-0.606,0.819l-1.481,2.888l-3.299,4.69l-0.297,1.381l0.17,1.612l1.865,8.573l0.04,1.756
		l-0.325,1.647l-0.123,0.226l-0.368,0.382l-0.107,0.208l-0.008,0.44l0.131,0.949l-0.059,0.431l-0.867,1.301l-2.258,2.105
		l-4.741,13.47l-1.2,5.773l0.146,2.975l-6.509-0.027l-0.119-0.05l-0.113-0.112l-0.107-0.187l-0.127-0.254l-0.279-1.103l-0.143-1.718
		l0.238-2.97l0.804-3.531l2.462-4.963l0.125-0.41l0.034-0.232v-0.269l-0.23-0.884l-0.285-0.766l-0.143-1.159l0.428-2.579
		l0.042-0.799l-0.059-1.03l-0.192-0.653l-1.717-4.301l-0.57-0.682l-8.299-6.852l-8.299-6.856l-3.034-3.717l-0.327-0.255l-0.41-0.199
		l-8.426-3.123l-0.41-0.314l0.054-0.46l0.261-0.594l1.012-1.804l0.143-0.478l0.143-0.73l-1.9-14.472l-1.9-14.49l0.012-0.571
		l0.172-0.379l0.143-0.233l0.503-0.618l0.438-0.64l0.499-1.117l0.131-0.42l0.521-5.184l-0.04-4.543l2.224-7.579l0.238-3.225
		l1.119-0.86l0.642-0.354l0.808-0.354l0.81-0.213l0.862-0.116l1.071,0.082l4.347,1.123l1.147,0.03l0.673-0.246l27.806-17.298
		l4.911-2.21l1.367-0.125l1.303,0.316l1.469,0.806l1.354,1.178l1.85,1.925l8.45,13.329l4.686,5.719l4.287,4.254l3.658,2.789
		l0.303,0.345l0.78,1.322l0.612,1.83L589.381,445.761z"/>
	<path class="st0" d="M593.206,442.368l-0.022,0.714l-0.079,0.383l-1.156,1.303l-2.568,0.993l-0.005-0.015l-0.612-1.83l-0.78-1.322
		l-0.303-0.345l-3.658-2.789l-4.287-4.254l-4.686-5.719l-8.45-13.329l-1.85-1.925l-1.354-1.178l-1.469-0.806l-1.303-0.316
		l-1.367,0.125l-4.911,2.21l-27.806,17.298l-0.673,0.246l-1.147-0.03l-4.347-1.123l-1.071-0.082l-0.862,0.116l-0.81,0.213
		l-0.808,0.354l-0.642,0.354l-1.119,0.86l-5.143-17.76l-0.208-2.378l0.297-2.1l0.844-3.197v-1.215l-0.422-1.302l-3.996-5.573
		l-2.782-5.501l-0.689-2.193l-0.418-3.556l-0.101-6.218l-0.208-1.458l-0.362-1.009l-0.529-0.916l-0.475-0.624l-1.368-1.254
		l0.345-3.46l0.362-1.114l0.673-1.274l0.915-0.534l0.828,0.205l1.842,1.957l1.196-0.038l0.802-0.986l1.909-5.751l0.743-1.465
		l0.964-1.519l1.25-1.127l1.343-0.851l1.6-0.422l1.594,0.212l1.491,0.857l3.206,3.921l0.939,0.559l0.964-0.126l1.135-0.794
		l3.129-3.104l2.42-1.937l1.309-0.817l1.01-0.395l0.541-0.054l0.517,0.025l0.572,0.098l0.487,0.207l2.527,1.58l0.452,0.183
		l1.077,0.117l2.782-0.129l1.826,0.294l0.826,0.262l1.588,0.278l0.226,0.502l0.469,0.531l0.071,0.126l0.036,0.19l0.055,0.81
		l0.063,0.266l0.228,0.378l0.392,0.424l1.659,1.361l0.345,0.469l0.131,0.269l0.018,0.204l-0.101,0.112l-0.125,0.059l-0.214,0.073
		l-0.115,0.171v0.225l0.394,0.638l0.184,0.507l0.172,0.366l0.22,0.246l0.339,0.123l0.249,0.196l1.333,2.156l0.339,0.351l0.202,0.003
		l0.232-0.351l0.238,0.037l0.392,0.241l0.697,0.537l0.475,0.141l0.463-0.029l0.661-0.351l0.208,0.003l0.261,0.104l0.309,0.442
		l0.38,0.114l0.398-0.022l0.428-0.085l0.376,0.002l0.244,0.053l0.143,0.273l0.053,0.261v0.408l-0.101,0.391l-0.184,0.344
		l-0.261,0.284l-0.297,0.256l-0.323,0.224l-0.564,0.505l-0.202,0.324l-0.107,0.392l0.024,0.417l0.107,0.399l0.16,0.366l1.054,1.641
		l2.164,4.272l2.925,3.831l0.856,0.524l1.642,0.725l1.452,0.482l0.428,0.195l0.404,0.263l0.469,0.435l1.03,1.328l0.267,0.279
		l0.285,0.246l0.529,0.324l3.592,1.574l0.428,0.107l0.665,0.231l0.911,0.557l1.559,1.194l0.689,0.666l1.368,1.855l1.945,1.873
		l1.17,1.385l0.428,0.36l8.129,4.727l0.576,0.515l1.024,1.137l1.147,1.017l1.493,0.964l3.699,1.492l12.726,2.876l0.048,0.015
		l0.02,0.006l-0.525,0.243l-0.139,0.124l0.008,0.209l-0.261,1.003l-0.055,0.42l-0.139,0.402l-0.38,0.418l-0.333,0.142l-0.741,0.057
		l-0.329,0.136l-0.345,0.392l-7.208,12.094l-0.408,1.096l-0.103,1.092l-0.111,0.49l-0.352,0.531l-0.4,0.328l-0.836,0.44l-0.376,0.32
		l-0.289,0.444l-0.681,1.714l-0.38,2.149l-0.333,0.931l-0.749,0.867l-1.434,0.83l-0.345,0.34l-0.111,0.362L593.206,442.368z"/>
	<path class="st0" d="M449.361,39.579l1.037-0.001h3.921h3.925h3.921h3.925h3.921h3.925h3.921h3.925h3.921h3.121l-13.702,125.858
		v0.233l0.059,0.218l0.22,0.185l15.627,8.799l0.166,0.166l0.053,0.229l-0.885,16.675l0.053,0.238l3.872,10.663l-0.042,1.926
		l0.749,3.225l-4.192,7.896l-27.752,40.013l-1.469,0.318l-8.092,4.975l-5.472-1.861l-1.962-0.311l-13.278,1.232l-136.638-4.658
		l-0.541-134.114H200.48l-0.753-0.336v-4.554l0.004-3.882v-3.886l0.004-3.886l0.004-3.887v-5.099v-5.104l0.004-5.108v-5.112v-5.116
		l0.004-5.118l0.004-5.125V60.14v-5.132V49.87l0.004-5.145V39.58l3.727,0.002h3.731h3.731h3.735h3.727l3.729,0.002h3.731h3.727
		h3.727l3.731,0.002l3.735,0.002h3.727h3.731l3.727,0.002h3.727h3.731h3.731l3.731,0.002l3.727,0.002h3.731h3.727h3.731h3.731
		l3.727,0.002h3.731h3.731h3.731h3.731h3.727l3.731,0.002l3.731,0.002h3.731h3.725l3.733,0.002h3.731h3.725h3.733h3.731h3.731
		l3.731,0.002l3.727,0.002h3.731h3.731h3.727h3.725l3.733,0.002h3.731h3.731h3.731l3.727,0.002l3.727,0.002h3.731h3.725h3.737h3.731
		l3.727,0.002h3.727h3.731h3.731h3.727h3.733l3.733,0.002l3.731,0.002h3.725h1.467l0.507-0.305l1.889-3.884l0.132-0.272l1.729-3.551
		l0.99-1.091l0.717-0.385L446.623,30l0.737,0.115l0.705,0.359l0.844,0.83l0.341,0.92l-0.048,1.035l-0.887,2.651l-1.224,3.67
		L449.361,39.579z"/>
	<path class="st0" d="M488.824,39.578h0.802h3.925h3.927h3.921h3.925h3.921h3.923l15.159,11.761l-10.818,8.806l0.558,0.778
		l0.671,0.745l0.469,0.388l0.267,0.294l0.119,0.159l0.101,0.178l0.287,0.803l0.083,0.459l0.018,1.841l0.042,0.226l0.232,0.855
		l0.125,0.686l0.024,0.511l-0.036,0.545l-0.291,1.457l-0.125,0.367l-0.24,0.473l-0.22,0.354l-1.236,1.577l-0.137,0.338l-0.059,0.311
		l0.267,2.923l-0.047,1.362l-0.214,0.911l-0.685,2.052l-0.077,0.487l-0.059,0.826l0.024,0.319l0.059,0.258l0.067,0.192l0.487,0.852
		l0.137,0.15l0.315,0.253l2.117,1.297l0.446,0.404l2.325,3.227l0.273,0.288l0.661,0.504l0.351,0.219L525,90.2l0.44,0.139
		l1.731,0.331l0.208,0.077l0.184,0.103l0.16,0.121l0.238,0.318l0.101,0.177l0.768,2.221l0.778,1.418l0.125,0.156l0.279,0.282
		l0.249,0.304l0.202,0.351l0.697,1.496l0.428,0.678l0.701,1.481l0.483,1.358l0.22,0.893l0.036,0.398v0.338l-0.22,1.75l-0.059,2.428
		l0.052,0.41l0.073,0.199l0.339,0.606l0.018,0.156l-0.059,0.163l-0.596,1.085l-0.844,2.335l-0.683,4.221l-0.095,3.18l0.297,2.253
		l1.844,6.192l0.63,6.666l0.006,1.867l-0.148,1.009l-0.463,1.861l-1.244,2.846l-0.077,0.246l-0.071,0.383l0.119,0.507l18.082,43.845
		l0.388,0.582l0.505,0.317l5.656,1.628l7.105,3.064l8.884,5.314l4.602,4.331l1.362,1.597l0.713,1.069l5,9.779l3.711,5.887
		l0.673,0.839l1.414,1.393l18.898,12.776l0.63,13.048l-0.517,4.729l-1.535,4.042l-2.402,2.671l-2.408,1.728l-3.295,1.856
		l-2.943,1.015l-3.038,0.456l-26.087-0.009l-2.093,0.245l-1.119,0.569l-9.555,13.19l-1.588,2.851l-5.656,0.867l-1.366,0.722
		l-5.038,1.933l-2.634,0.563l-2.533,0.062l-1.499-0.18l-3.258-1.015l-4.751-2.575l-18.946-5.091l-12.108-6.704l-1.861-0.646
		l-20.146-3.272l-1.963-0.883l-1.707-1.426l-5.083-5.551l-0.626-1.049l-0.665-1.866l27.752-40.013l4.192-7.896l-0.749-3.225
		l0.042-1.926l-3.872-10.663l-0.053-0.238l0.885-16.675l-0.053-0.229l-0.166-0.166l-15.627-8.799l-0.22-0.185l-0.059-0.218v-0.233
		L488.824,39.578z"/>
	<path class="st0" d="M513.167,39.578l0.819,0l8.094-0.002h8.917h8.915h8.679h0.241h8.915l8.915-0.002l8.919-0.002h8.915h8.915
		h8.915l8.919-0.002h8.915h8.919l8.915-0.002l8.915-0.002h8.958l-0.115,0.621l-0.103,0.193l-0.162,0.081l-0.611,0.086l-0.677,0.242
		l0.914,0.693l0.368,0.548l0.025,4.99l0.867,5.668l-0.343,1.144l0.543,0.374l0.125,0.481l0.025,0.507l0.237,0.453l0.424,0.436
		l0.278,0.396l2.055,4.948l4.965,7.726l3.271,3.122l4.079,5.246l0.29,0.688l-0.081,0.802l-0.265,0.708l-0.483,0.339l-0.736-0.309
		l-0.773,0.58l-0.692-0.583l-1.048-1.833l-0.262-0.356l-0.287-0.515l-0.112-0.458l0.268-0.201l0.499,0.144l0.274,0.338l0.175,0.411
		l0.231,0.358l0.879,0.685l0.518,0.215l0.331-0.185l-0.081-0.341l-0.945-1.088l-0.599-1.593l-0.415-0.572l-0.605,0.201l-1.073-0.816
		l-0.312,0.433l-0.299-0.075l-0.25-0.401l-0.156-0.542l0.094-0.497l0.25-0.477l0.075-0.485l-0.418-0.505l-1.042-0.228l-0.63,0.689
		l-0.253,1.094l0.09,0.993l0.193,0.231l0.474,0.032l0.094,0.272l-0.131,0.49l-0.131,0.351l0.168,1.043l-0.012,0.481l-0.156,0.466
		l-0.384,0.388l-0.39,0.12l-0.265,0.217l-0.009,0.678l0.196,0.368l1.113,1.311l1.023,2.415l0.487,2.569l0.349,5.405l0.555,2.541
		l1.703,4.888l0.094,2.661l-0.106,0.651l-0.203,0.647l-0.371,0.391l-1.166-0.17l-0.131,0.528l0.143,1.215l-0.287,2.905l0.275,1.653
		l0.013,0.605l0.905,2.392l0.307,1.44l0.204,1.335l0.204,1.955l-0.584,1.547l0.013,0.276l-0.14,0.448l-0.468,0.586l-0.178,0.383
		l-0.025,1.099l0.281,1.387l2.426,6.458l0.225,1.379v2.654l-0.075,0.729l-0.203,0.444l-0.639,0.911l-0.119,0.619l0.271,2.45
		l-0.059,0.768l0.059,0.341l0.15,0.386l0.614,1.054l0.786,2.321l1.519,8.63l0.309,4.188l0.14,0.485l0.321,0.279l0.352,0.216
		l0.234,0.29v0.271l-0.2,0.531l-0.016,0.281l0.932,1.311l0.46,2.021l0.797,2.601l0.521,1.693l0.321,2.096l0.508,0.735l0.827,1.544
		l0.886,1.535l1.263,1.173l0.212,0.471l0.346,0.445l0.43,0.24l0.465-0.152l0.43-0.252l0.284,0.071l2.288-0.347l1.273-0.575
		l0.178,0.747l0.855,0.459l0.711,0.135l0.786-0.054l0.245,0.465l0.09,0.659l0.617,0.57l-0.288,1.563l0.596-0.324l0.443-0.141
		l0.431,0.341l0.627,0.652l4.321,1.237l1.588,1.539l1.071,1.816l1.66,1.654l1.055,0.702l1.668,0.658l0.483,0.571l-0.482,0.702
		l-1.009,0.527l-0.262,1.404l1.054,2.279l1.841,1.708l2.06,0.482l1.533-0.263l0.219-1.49l0.77-0.233l1.338-0.805l0.237,0.427
		l-0.324,0.34l-0.54,0.296l-0.396,0.291l-0.056,0.325l0.031,0.443l-0.1,0.483l-0.449,0.453l-0.58,0.167l-0.511-0.033l-0.427,0.036
		l-0.29,0.356l0.499-0.005l1.335-0.246l0.505,0.092l0.346,0.217l0.318,0.263l0.402,0.23l0.505,0.13l1.079,0.133l0.521,0.177
		l0.58,0.103l0.396-0.187l0.056-0.32l-0.474-0.289l0.605-0.558l0.755,0.778l1.229,1.984l-0.359,0.541l0.636,0.399l0.964,0.074
		l0.617-0.438l0.405,0.62l0.131,1.6l0.25,0.51l0.758,0.121l0.371-0.612l-0.062-0.92l-0.543-0.792l0.649,0.402l1.597,1.663
		l0.253,0.62l-0.003,0.636l0.094,0.394l0.399,0.9l-0.087,0.364l-5.453,4.595l-1.061,1.561l-2.309,6.164l-1.057,1.725l-0.776,0.605
		l-1.901,0.929l-0.661,0.613l-0.194,0.794l0.047,0.852l-0.099,0.796l-0.646,0.648l-0.907,0.137l-0.677-0.419l-0.582-0.596
		l-0.622-0.393l-1.351,0.434l-0.226,0.037l-0.174,0.359l0.048,0.255l0.099,0.276l-0.012,0.422l-0.4,0.768l-0.634,0.554l-0.574,0.006
		l-0.218-0.868l0.055-0.804l-0.04-0.669l-0.36-0.401l-0.879-0.004l-0.899,0.33l-0.037,0.025l-2.589,1.753l-1.2,1.555l-0.753,0.581
		l-0.915,0.212l-0.875-0.27l-1.149-1.113l-0.78-0.218l-1.339,0.725l-1.667,3.022l-1.564,0.82l-1.549,0.218l-5.074,1.587
		l-0.412,0.253l-0.095,0.458l0.428,1.837l0.036,0.73l-0.178,1.673l-0.242,0.821l-0.84,1.509l-0.182,0.895l-0.317,0.8l-2.159,2.598
		l-3.588-1.019l-1.105,0.095l-1.822,1.135l-1.161,0.075l-0.57-0.085l-2.079,0.34l-0.38-0.064l-1.481-0.915l-0.396-0.147l-0.986-0.17
		l-0.685-0.282l-0.578-0.402l-0.61-0.271l-0.78,0.104l-0.253,0.3l-0.004,0.018l-0.011,0.001l-35.036,2.919l-0.713-0.037
		l-1.077-0.369l-13.634-7.137l-18.898-12.776l-1.414-1.393l-0.673-0.839l-3.711-5.887l-5-9.779l-0.713-1.069l-1.362-1.597
		l-4.602-4.331l-8.884-5.314l-7.105-3.064l-5.656-1.628l-0.505-0.317l-0.388-0.582l-18.082-43.845l-0.119-0.507l0.071-0.383
		l0.077-0.246l1.244-2.846l0.463-1.861l0.148-1.009l-0.006-1.867l-0.63-6.666l-1.844-6.192l-0.297-2.253l0.095-3.18l0.683-4.221
		l0.844-2.335l0.596-1.085l0.059-0.163l-0.018-0.156l-0.339-0.606l-0.073-0.199l-0.052-0.41l0.059-2.428l0.22-1.75v-0.338
		l-0.036-0.398l-0.22-0.893l-0.483-1.358l-0.701-1.481l-0.428-0.678l-0.697-1.496l-0.202-0.351l-0.249-0.304l-0.279-0.282
		l-0.125-0.156l-0.778-1.418l-0.768-2.221l-0.101-0.177l-0.238-0.318l-0.16-0.121l-0.184-0.103l-0.208-0.077l-1.731-0.331L525,90.2
		l-0.392-0.186l-0.351-0.219l-0.661-0.504l-0.273-0.288l-2.325-3.227l-0.446-0.404l-2.117-1.297l-0.315-0.253l-0.137-0.15
		l-0.487-0.852l-0.067-0.192l-0.059-0.258l-0.024-0.319l0.059-0.826l0.077-0.487l0.685-2.052l0.214-0.911l0.047-1.362l-0.267-2.923
		l0.059-0.311l0.137-0.338l1.236-1.577l0.22-0.354l0.24-0.473l0.125-0.367l0.291-1.457l0.036-0.545l-0.024-0.511l-0.125-0.686
		l-0.232-0.855l-0.042-0.226l-0.018-1.841l-0.083-0.459l-0.287-0.803l-0.101-0.178l-0.119-0.159l-0.267-0.294l-0.469-0.388
		l-0.671-0.745l-0.558-0.778l10.818-8.806L513.167,39.578z M670.498,86.523l0.396,0.287l0.134,0.098l0.168,0.529l-0.449,2.732
		l-0.281,0.66l-0.387,0.007l-0.393-0.936l-0.028-1.286l0.284-1.256L670.498,86.523z"/>
	<path class="st0" d="M161.436,142.005v-5.079v-5.079v-5.082v-5.088h6.175l3.275,0.004l4.329,0.001l5.125,0.004l4.773,0.005
		l4.681,0.001l5.592,0.003h3.862l0.083-0.009l0.083-0.009l0.083-0.01l0.087-0.013l0.036-0.061l0.036-0.063l0.036-0.061l0.036-0.063
		v-0.258l0.753,0.336h95.118l0.541,134.114l-1.022,0.14l-20.415,0.102l-0.457,0.349l-0.327,0.676l8.201,70.519l0.19,0.499
		l0.386,0.396l1.505,1.036l1.642,3.214l4.109,13.174l5.713,16.303l-1.594,9.025l-0.012,0.465l0.107,0.34l0.107,0.234l2.446,4.001
		l0.428,1.5l-0.125,1.456l-0.493,1.894l-0.145,0.355l-0.463,0.705l-3.866,4.658l-0.57,0.517l-0.131,0.376l-0.107,0.594l-0.178,3.018
		l-0.113,0.483l-1.119,1.709l-0.499,1.194l-0.867,1.403l-5.822,7.376l-1.034,2.35l-0.178,0.602l-0.424,5.383l0.281,4.719
		l-0.036,0.575l-0.079,0.503l-0.119,0.453l-1.052,2.898l-2.063,3.45l-0.172,0.514l-0.071,0.421l0.107,0.954l1.414,5.376l0.032,0.473
		l-0.024,0.508l-0.202,1.483l0.012,1.962l0.048,0.334l0.146,0.422l1.897,3l0.465,0.917l0.273,1.284l0.095,0.909l2.497,4.685
		l-5.406-1.044l-15.003,0.199l-1.432-0.401l-1.79-0.787l-1.957-1.466l-1.677-1.831l-0.749-0.631l-1.297-0.763l-2.188-0.767
		l-1.604-0.199l-1.291,0.105l-1.196,0.212l-1.384-0.11l-1.416-0.673l-1.968-1.808l-3.8-5.978l-3.174-3.326l-2.444-1.987
		l-1.071-1.365l-0.428-0.75l0.16-0.722l0.196-0.335l0.394-0.288l0.772-0.32l3.442-0.988l0.792-0.475l0.392-0.623l-0.089-0.788
		l-0.392-0.741l-0.667-0.737l-8.365-6.836l-1.885-0.9l-5.145-3.073l-7.206-6.619l-1.071-0.637l-1.271-0.598l-1.654-0.341
		l-1.731-0.157l-6.018,0.576l-6.38-0.24l-11.684-1.718l-7.058-0.501l-1.41-0.382l-1.028-0.715l-0.507-0.901l0.012-1.124l0.531-1.307
		l0.814-1.151l5.275-5.122l1.515-1.924l0.572-0.979l0.345-0.809l0.059-0.694l-0.202-0.901l-0.65-0.981l-0.867-0.548l-1.208-0.311
		l-1.426-0.049l-1.416,0.125l-1.564,0.346l-6.256,2.423l-6.076,3.52l-1.701,0.57l-1.654,0.171l-1.143-0.158l-2.865-1.313
		l-4.08-1.334l-1.129-0.572l-1.149-0.737l-1.135-1.068l-1.089-0.747l-1.135-0.493l-1.089-0.184l-2.117-0.037l-1.063-0.123
		l-0.828-0.333l-0.469-1.203l0.131-1.905l1.184-3.898l2.711-4.936l12.29-13.577l8.111-13.636l0.566-1.516l0.339-1.353l0.119-1.531
		l-0.113-1.714l-0.798-3.554l-1.016-2.556l-1.16-2.156l-1.408-1.854l-1.962-2.13l-0.905-1.282l-0.606-2.192l-0.19-2.343l0.119-5.966
		l-0.25-1.959l2.408-13.244l-0.6-0.927v-2.298l-0.004-9.255l-0.012-9.266l-0.008-9.277l-0.004-9.288l-0.008-9.302l-0.008-9.309
		l-0.008-9.323l-0.008-9.335l-0.004-9.347l-0.012-9.359l-0.008-9.371l-0.004-9.382l-0.008-9.396l-0.008-9.409l-0.008-9.423
		L161.436,142.005z"/>
	<path class="st0" d="M128.401,294.366l1.822-0.228l5.893,1.259l2.883-0.28l5.03-1.864l2.515-0.551l4.4,0.006l4.658,0.71
		l4.464,1.545l1.038,0.045l0.451-1.197v-0.031l0.6,0.927l-2.408,13.244l0.25,1.959l-0.119,5.966l0.19,2.343l0.606,2.192l0.905,1.282
		l1.962,2.13l1.408,1.854l1.16,2.156l1.016,2.556l0.798,3.554l0.113,1.714l-0.119,1.531l-0.339,1.353l-0.566,1.516l-8.111,13.636
		l-12.29,13.577l-2.711,4.936l-1.184,3.898l-0.131,1.905l0.469,1.203l0.828,0.333l-4.431,4.856l-4.579,0.362l-2.818,1.448
		l-11.977,17.727l-10.568,11.92l2.113,14.069l-2.646,7.939l-0.194-0.192l-0.325,0.567l-0.511-0.318l-1.497,0.271l-2.491,0.79
		l-0.42,0.32l-0.23,0.124l-0.246,0.099l0.986-4.308l0.036-0.478l-0.028-0.478l-0.099-0.468l-2.816-8.749l-1.267-2.006l-0.079-0.481
		l0.883-1.294l1.909-4.514l-0.507-0.501l-3.921-1.478l-4.8-3.217l-1.097,1.644l-1.232,1.188l-1.465,0.82l-1.806,0.538l-1.497,0.207
		l-1.628-0.016l-1.58-0.302l-1.347-0.664l-0.792-0.779l-1.505-2.854l-1.042-1.311l-0.162-0.447l0.091-0.248l0.614-1.224l0.962-2.933
		l3.149-6.034l1.109-1.542l1.315-1.269l0.677-0.379l4.115-1.65l0.634-0.446l3.537-3.761l1.354-1.793l0.321-1.645l-0.459-0.901
		l-1.355-1.652l-0.499-0.941l-0.17-0.757l-0.024-2.268l-0.562-1.527l-2.444-2.294l-0.681-1.527v-0.88l0.075-0.611l-0.131-0.578
		l-0.606-0.786l-0.895-0.852l0.048-0.354l0.935-1.543l3.12-3.992l0.378-0.483l0.923-0.941l1.105-0.743l6.083-2.918l0.741-0.507
		l1.422-1.342l0.871-0.491l1.026-0.201l0.891-0.355l0.57-0.675l0.051-1.159l-0.261-1.27l-0.345-0.769l-0.681-0.428l-2.162-0.383
		l-0.638-0.344l-0.459-0.583l-0.349-0.855l-0.111-0.469l0.04-0.311l0.341-0.674l0.166-0.167l0.519-0.243l0.194-0.198l0.04-0.293
		l-0.139-0.231l-0.19-0.21l-0.127-0.237l-0.543-4.254l-0.297-0.541l-1.18-0.888l-0.875-1.465l0.721-1.409l1.549-1.187l1.636-0.8
		l7.699-2.078l0.392-0.287l0.186-0.553l-0.067-0.352l-0.578-1.265l-0.214-0.694l-0.313-2.175v-1.022l0.309-0.614l1.402-0.954
		l0.76-0.712l0.218-0.655l0.036-0.743l0.202-0.966l0.448-0.824l3.454-3.644l0.757-0.63l0.875-0.484l1.299-0.511l0.297-0.362
		l1.715-3.174l0.293-0.884l0.487-4.62l-0.075-1.329l-0.38-1.24l-0.824-1.125l-0.82-0.893l-0.642-1.027l-0.281-1.145l0.277-1.241
		l0.725-0.896l3.022-1.889l2.452-2.995l1.002-0.699L128.401,294.366z"/>
	<path class="st0" d="M657.545,265.326l0.245,0.692l-0.02,0.706l-0.135,0.716l-0.055,0.852l0.198,0.84l0.697,1.618l0.103,0.85
		l-0.392,1.015l-1.604,1.671l-0.622,1.044l-1.275,3.639l-1.731,4.957l-1.838,5.253l-1.03,1.702l-1.893,1.973l-0.471,0.879
		l-2.079,7.624l-0.099,1.681l0.527,1.735l-1.256,0.846l-0.748,1.228l-1.941,5.782l-0.697,1.095l-2.82,2.759l-0.309,0.691
		l-0.055,0.871l0.44,3.765l0.78,6.646l0.258,2.192l-0.01-0.001l-2.212-0.298l-13.29,0.341l-3.079,0.592l-17.906,6.573l-2.188,0.389
		l-1.701-0.194l-1.895-1.35l-8.747-9.783l-5.198-12.857l-0.737-1.197l-2.081-2.702l-1.463-1.556l-1.66-1.438l-2.057-1.369
		l-6.194-3.292l-4.586-1.669l-5.47-1.308l-5.192-11.71l-1.081-3.574l-0.083-2.233l1.588-2.851l9.555-13.19l1.119-0.569l2.093-0.245
		l26.087,0.009l3.038-0.456l2.943-1.015l3.295-1.856l2.408-1.728l2.402-2.671l1.535-4.042l0.517-4.729l-0.63-13.048l13.634,7.137
		l1.077,0.369l0.713,0.037l35.036-2.919l0.011-0.001l-0.079,0.32l0.087,0.356l0.76,1.064l0.139,0.766l-0.178,0.774l-0.931,1.346
		l0.131,0.433l0.4,0.393l0.333,0.495l0.095,0.509l-0.071,1.608l0.051,0.153l0.226,0.36l0.047,0.234l-0.071,0.165l-0.277,0.321
		l-0.071,0.178l-0.147,2.395l-0.943,2.403l-0.412,0.552l-1.263,0.916l-0.582,0.529l-0.349,0.754l-0.063,0.709l0.071,1.304
		l-0.115,0.773l-0.471,1.595l-0.028,0.549l0.261,0.925l0.499,0.706l0.602,0.644l0.543,0.733L657.545,265.326z"/>
	<path class="st0" d="M515.063,432.472l-18.296-0.227l-0.113,0.166l-0.012,0.198l0.046,0.227l0.026,0.243l-0.012,0.509l-0.148,0.939
		l-0.036,0.497l0.018,0.506l0.279,1.817l0.481,1.366l0.077,0.455l0.024,0.498l-0.059,0.944l-12.731,0.057l-12.732,0.057
		l-5.941-6.642l-2.248-1.433l-3.394-0.289l-0.572-0.115l-0.511-0.225l-0.249-0.513l-0.149-0.617l-1.986-13.416l-1.719-13.063
		l-0.071-1.574l0.178-0.312l0.863-1.031l3.729-3.424l6.105-4.109l3.319-1.3l0.238-0.189l0.267-0.299l0.446-0.633l0.234-0.445
		l0.137-0.338l0.048-0.245l0.012-0.245l-0.024-0.239l-0.196-0.87l-0.513-1.375l-0.089-0.44l-0.012-0.468l0.095-0.675l1.053-3.273
		l0.083-0.553l-0.042-0.274l-0.077-0.147l-0.149-0.171l-0.142-0.132l-0.626-0.415l-0.19-0.083l-2.135-0.585l-0.891-0.424
		l-0.315-0.22l-0.964-0.927l-0.356-0.436l-1.057-1.017l-0.988-1.172l-2.551-4.144l-2.218-5.316l-0.428-0.657l-0.131-0.142
		l-0.143-0.126l-0.857-0.489l-1.648-1.293l-1.366-0.806l-0.804-0.587l-0.131-0.137l-0.113-0.157l-0.166-0.316l-0.16-0.398
		l-0.238-0.813l-0.63-1.533l-0.588-2.104l-0.572-3.495l-0.089-5.391l0.685-5.233l0.075-0.302l0.875-2.393l1.416-2.125l0.547-0.533
		l0.309-0.234l1.434-0.729l1.164-0.456l0.899-0.453l0.327-0.213l0.279-0.268l0.356-0.457l4.085-8.993l0.125-0.203l0.214-0.212
		l4.341-3.009l0.172-0.203l0.024-0.23l-0.131-0.54l-0.101-0.658l-0.012-0.807l0.404-0.467l0.501-0.337l12.29-5.254l0.65,0.363
		l2.812,0.854l0.362,0.018l0.446-0.027l1.125-0.307l0.636-0.274l1.416-0.209l4.317,0.209l0.933,2.523l0.261,1.071l0.089,0.956
		l-0.362,0.951l-0.44,0.323l-0.713,0.112l-0.834-0.062l-0.891,0.062l-0.677,0.297l-0.352,0.628l-0.012,0.83l0.495,0.777l0.701,0.519
		l2.646,1.006l0.428,0.256l0.285,0.361l0.281,0.821l0.226,1.466l0.166,6.092l-0.184,1.42l-0.489,1.266l-0.867,1.185l-1.22,1.14
		l-2.2,2.527l-2.42,4.285l-1.885,4.288l-0.267,0.964l-0.113,0.76l0.059,0.773l0.226,1.086l0.97,3.137l1.511,3.13l3.335,5.556
		l1.921,3.939l0.327,1.615l0.131,1.38l-0.071,6.675l0.238,1.212l0.529,0.618l0.935-0.018l1.004-0.612l3.521-3.886l1.368,1.254
		l0.475,0.624l0.529,0.916l0.362,1.009l0.208,1.458l0.101,6.218l0.418,3.556l0.689,2.193l2.782,5.501l3.996,5.573l0.422,1.302v1.215
		l-0.844,3.197l-0.297,2.1l0.208,2.378L515.063,432.472z"/>
	<path class="st0" d="M471.874,440.724l10.08,11.383l0.119,0.232l0.178,0.618l0.071,0.454l0.19,4.002l-0.541,6.329l0.117,4.067
		l0.59,2.64l2.729,5.195l-0.178,0.97l-0.638,1.224l-9.028,7.715l-9.028,7.71l-0.499,0.727l-2.517,6.424l-2.384,3.736l-1.063,1.07
		l-4.192,5.24l-8.239,8.212l-8.239,8.206l-2.699,1.101l-8.206,0.449l-0.013,0l-4.328,0.12l-0.493,0.124l-0.739,0.281l-0.452,0.425
		l-0.535,0.316l-0.529-0.172l-0.614-0.446l-10.143-9.19l-9.036-5.808l-9.036-5.81l-1.731,1.057l-10.226,4.996l-2.111,1.296
		l-1.166,0.917l-0.059,5.591l-1.784,2.843l-3.228,3.099l-8.842,1.964l-4.602,1.689l-4.705,2.507l-0.766,0.628l-2.899,2.256
		l-2.472,2.453l-0.789,1.493l-0.053,1.653l0.158,1.386l0.473,0.959l-0.049,0l-15.28-0.133l-15.279-0.133l-1.841-2.079l-3.909-8.178
		l-2.673-5.766l-5.723-12.339l-0.715-3.18l-13.456-33.424l-2.473-10.258l-0.012-0.145l-0.006-1.664l-0.624-4.446l2.185,1.767
		l3.428,1.44h4.033l2.42-0.617l2.017-0.617l2.017-1.234l1.412-1.44l1.613-1.852l2.622-2.676l2.218-1.853l1.613-1.647l1.21-2.677
		l1.613-3.09l1.21-2.885l0.403-1.443l0.807-1.649l1.412-0.825h1.613l2.017,0.618l2.823,0.206l1.815,0.618l1.412,0.824h1.613
		l2.218-0.206l4.437-0.824l2.42-0.825l1.21-0.824l0.202-1.237l-0.403-1.237l0.403-2.062l1.412-3.919l0.807-3.301l1.21-1.858
		l1.21-0.826l1.613-1.032l1.412-2.065l1.815-2.065l1.008-0.62l1.412-0.207l1.21,0.413l2.622,2.065l2.622,1.858l2.42,1.858
		l2.622,1.651l3.775,0.802l1.03-0.549l1.164-0.247l0.911,0.076l0.749,0.212l0.757,0.291l0.683,0.152l0.719-0.067l10.323-15.85
		l1.345-1.103l1.45-0.586l1.529-0.246l1.428-0.067l1.147,0.14l0.558,0.16l0.376,0.174l0.285,0.188l0.392,0.399l0.683,0.899
		l0.256,0.444l0.137,0.478l0.073,0.611l-0.228,3.898l0.125,0.57l0.353,0.505l0.909,0.617l1.143,0.236l9.965-0.414l2.832,0.413
		l1.016,0.435l0.915,0.734l3.254,4.785l1.141,1.134l1.464,1.044l1.297,0.516l0.986,0.231l0.988,0.031l1.028-0.156l1.018-0.473
		l0.862-0.737l1.582-1.884l0.422-0.41l0.428-0.307l0.707-0.34l2.206-0.783l1.267-0.65l1.256-0.905l0.968-1.081l2.093-3.726
		l0.867-1.072l1.083-0.859l1.182-0.413l0.976-0.024l2.034,0.452l0.861,0.027l0.869-0.149l1.182-0.459l4.347-2.686l1.172-0.294
		l0.861,0.008l0.976,0.255l7.509,4.078l1.986,13.416l0.149,0.617l0.249,0.513l0.511,0.225l0.572,0.115l3.394,0.289l2.248,1.433
		L471.874,440.724z"/>
	<path class="st0" d="M311.417,534.532l-0.394,0.157l-0.63,0.112l-3.784,0.202l-4.909-0.724l-0.214,0.022l-0.798,0.217l-0.222,0.024
		l-3.113-0.396l-5.478,0.022l-1.758-0.311l-9.919,0.232l-14.795,5.047l-0.41,0.036l-2.218-0.181l-0.952-0.44l-1.687-1.106
		l-7.231-8.522l-7.231-8.528l-2.945-1.123l-0.012-0.013l-0.541-0.571l-0.452-0.579l-2.289-3.781l-0.226-0.305l-0.137-0.129
		l-0.244-0.197l-0.107-0.054l-1.042-0.306l-0.582-0.257l-1.38-0.816l-0.297-0.247l-0.249-0.275l-0.101-0.166l-0.071-0.215
		l-0.232-6.028l-0.048-0.214l-0.077-0.181l-0.196-0.324l-1.665-2.085l-0.143-0.107l0.163-4.218l-3.523-10.754l-5.636-14.713
		l-6.341-5.387l-9.511-10.423l-0.352-26.642l3.875-5.409l0.704-10.826l-2.161-15.116l1.731,0.157l1.654,0.341l1.271,0.598
		l1.071,0.637l7.206,6.619l5.145,3.073l1.885,0.9l8.365,6.836l0.667,0.737l0.392,0.741l0.089,0.788l-0.392,0.623l-0.792,0.475
		l-3.442,0.988l-0.772,0.32l-0.394,0.288l-0.196,0.335l-0.16,0.722l0.428,0.75l1.071,1.365l2.444,1.987l3.174,3.326l3.8,5.978
		l1.968,1.808l1.416,0.673l1.384,0.11l1.196-0.212l1.291-0.105l1.604,0.199l2.188,0.767l1.297,0.763l0.749,0.631l1.677,1.831
		l1.957,1.466l1.79,0.787l1.432,0.401l15.003-0.199l5.406,1.044l1.256,6.378l0.018,9.451l0.624,4.446l0.006,1.664l0.012,0.145
		l2.473,10.258l13.456,33.424l0.715,3.18l5.723,12.339L311.417,534.532z"/>
	<path class="st0" d="M527.895,305.316l3.408,3.801l1.194,0.747l7.446,2.536l6.286,3.285l0.131,0.145l0.107,0.151l2.664,5.678
		l5.489,7.941l0.309,0.828l0.065,1.529l-12.292,21.628l-0.867,2.049l0.16,0.673l0.208,0.422l0.285,0.297l0.244,0.168l0.214,0.198
		l0.036,0.12l-0.042,0.095l-0.315,0.083l-0.083,0.063l-0.042,0.175l0.107,0.198l0.624,0.64l0.196,0.267l1.238,2.045l-1.588-0.278
		l-0.826-0.262l-1.826-0.294l-2.782,0.129l-1.077-0.117l-0.452-0.183l-2.527-1.58l-0.487-0.207l-0.572-0.098l-0.517-0.025
		l-0.541,0.054l-1.01,0.395l-1.309,0.817l-2.42,1.937l-3.129,3.104l-1.135,0.794l-0.964,0.126l-0.939-0.559l-3.206-3.921
		l-1.491-0.857l-1.594-0.212l-1.6,0.422l-1.343,0.851l-1.25,1.127l-0.964,1.519l-0.743,1.465l-1.909,5.751l-0.802,0.986
		l-1.196,0.038l-1.842-1.957l-0.828-0.205l-0.915,0.534l-0.673,1.274l-0.362,1.114l-0.345,3.46l-3.521,3.886l-1.004,0.612
		l-0.935,0.018l-0.529-0.618l-0.238-1.212l0.071-6.675l-0.131-1.38l-0.327-1.615l-1.921-3.939l-3.335-5.556l-1.511-3.13l-0.97-3.137
		l-0.226-1.086l-0.059-0.773l0.113-0.76l0.267-0.964l1.885-4.288l2.42-4.285l2.2-2.527l1.22-1.14l0.867-1.185l0.489-1.266
		l0.184-1.42l-0.166-6.092l-0.226-1.466l-0.281-0.821l-0.285-0.361l-0.428-0.256l-2.646-1.006l-0.701-0.519l-0.495-0.777l0.012-0.83
		l0.352-0.628l0.677-0.297l0.891-0.062l0.834,0.062l0.713-0.112l0.44-0.323l0.362-0.951l-0.089-0.956l-0.261-1.071l-0.933-2.523
		l0.095-0.402l0.345-0.969l0.125-0.209l0.166-0.148l0.558-0.233l8.236-2.425l6.796-0.973l0.255,0.021l1.796,0.399l0.255,0.014
		l0.303-0.071l0.394-0.242l0.226-0.181l0.446-0.447l1.66-1.329l0.665-0.42l0.958-0.426l1.693-0.193h1.475L527.895,305.316z"/>
	<path class="st0" d="M527.895,305.316l-9.163,1.243h-1.475l-1.693,0.193l-0.958,0.426l-0.665,0.42l-1.66,1.329l-0.446,0.447
		l-0.226,0.181l-0.394,0.242l-0.303,0.071l-0.255-0.014l-1.796-0.399l-0.255-0.021l-6.796,0.973l-8.236,2.425l-0.558,0.233
		l-0.166,0.148l-0.125,0.209l-0.345,0.969l-0.095,0.402l-4.317-0.209l-1.416,0.209l-0.636,0.274l-1.125,0.307l-0.446,0.027
		l-0.362-0.018l-2.812-0.854l-0.65-0.363l-2.242-6.787l-1.063-2.44l-8.302-14.248l-5.876-7.843l-9.549-21.649l8.092-4.975
		l1.469-0.318l0.665,1.866l0.626,1.049l5.083,5.551l1.707,1.426l1.963,0.883l20.146,3.272l1.861,0.646l12.108,6.704l18.946,5.091
		l4.751,2.575l3.258,1.015l1.499,0.18l2.533-0.062l2.634-0.563l5.038-1.933l1.366-0.722l5.656-0.867l0.083,2.233l1.081,3.574
		l5.192,11.71l-13.159-2.112l-8.551-3.029l-1.107,0.012l-1.553,0.782l-1.776,1.614l-3.319,4.675L527.895,305.316z"/>
	<path class="st0" d="M456.824,417.476l-7.509-4.078l-0.976-0.255l-0.861-0.008l-1.172,0.294l-4.347,2.686l-1.182,0.459
		l-0.869,0.149l-0.861-0.027l-2.034-0.452l-0.976,0.024l-1.182,0.413l-1.083,0.859l-0.867,1.072l-2.093,3.726l-0.968,1.081
		l-1.256,0.905l-1.267,0.65l-2.206,0.783l-0.707,0.34l-0.428,0.307l-0.422,0.41l-1.582,1.884l-0.862,0.737l-1.018,0.473
		l-1.028,0.156l-0.988-0.031l-0.986-0.231l-1.297-0.516l-1.464-1.044l-1.141-1.134l-3.254-4.785l-0.915-0.734l-1.016-0.435
		l-2.832-0.413l-9.965,0.414l-1.143-0.236l-0.909-0.617l-0.353-0.505l-0.125-0.57l0.228-3.898l-0.073-0.611l-0.137-0.478
		l-0.256-0.444l-0.683-0.899l-0.392-0.399l-0.285-0.188l-0.376-0.174l-0.558-0.16l-1.147-0.14l-1.428,0.067l-1.529,0.246
		l-1.45,0.586l-1.345,1.103l-10.323,15.85l-0.719,0.067l-0.683-0.152l-0.757-0.291l-0.749-0.212l-0.911-0.076l-1.164,0.247
		l-1.03,0.549l-3.775-0.802l-2.622-1.651l-2.42-1.858l-2.622-1.858l-2.622-2.065l-1.21-0.413l-1.412,0.207l-1.008,0.62l-1.815,2.065
		l-1.412,2.065l-1.613,1.032l-1.21,0.826l-1.21,1.858l-0.807,3.301l-1.412,3.919l-0.403,2.062l0.403,1.237l-0.202,1.237l-1.21,0.824
		l-2.42,0.825l-4.437,0.824l-2.218,0.206h-1.613l-1.412-0.824l-1.815-0.618l-2.823-0.206l-2.017-0.618h-1.613l-1.412,0.825
		l-0.807,1.649l-0.403,1.443l-1.21,2.885l-1.613,3.09l-1.21,2.677l-1.613,1.647l-2.218,1.853l-2.622,2.676l-1.613,1.852l-1.412,1.44
		l-2.017,1.234L297.8,465.9l-2.42,0.617h-4.033l-3.428-1.44l-2.185-1.767l-0.018-9.451l-1.256-6.378l-2.497-4.685l-0.095-0.909
		l-0.273-1.284l-0.465-0.917l-1.897-3l-0.146-0.422l-0.048-0.334l-0.012-1.962l0.202-1.483l0.024-0.508l-0.032-0.473l-1.414-5.376
		l-0.107-0.954l0.071-0.421l0.172-0.514l2.063-3.45l1.052-2.898l0.119-0.453l0.079-0.503l0.036-0.575l-0.281-4.719l0.424-5.383
		l0.178-0.602l1.034-2.35l5.822-7.376l0.867-1.403l0.499-1.194l1.119-1.709l0.113-0.483l0.178-3.018l0.107-0.594l0.131-0.376
		l0.57-0.517l3.866-4.658l0.463-0.705l0.145-0.355l0.493-1.894l0.125-1.456l-0.428-1.5l-2.446-4.001l-0.107-0.234l-0.107-0.34
		l0.012-0.465l1.594-9.025l-5.713-16.303l-4.109-13.174l-1.642-3.214l-1.505-1.036l-0.386-0.396l-0.19-0.499l-8.201-70.519
		l0.327-0.676l0.457-0.349l20.415-0.102l1.022-0.14l136.638,4.658l13.278-1.232l1.962,0.311l5.472,1.861l9.549,21.649l5.876,7.843
		l8.302,14.248l1.063,2.44l2.242,6.787l-12.29,5.254l-0.501,0.337l-0.404,0.467l0.012,0.807l0.101,0.658l0.131,0.54l-0.024,0.23
		l-0.172,0.203l-4.341,3.009l-0.214,0.212l-0.125,0.203l-4.085,8.993l-0.356,0.457l-0.279,0.268l-0.327,0.213l-0.899,0.453
		l-1.164,0.456l-1.434,0.729l-0.309,0.234l-0.547,0.533l-1.416,2.125l-0.875,2.393l-0.075,0.302l-0.685,5.233l0.089,5.391
		l0.572,3.495l0.588,2.104l0.63,1.533l0.238,0.813l0.16,0.398l0.166,0.316l0.113,0.157l0.131,0.137l0.804,0.587l1.366,0.806
		l1.648,1.293l0.857,0.489l0.143,0.126l0.131,0.142l0.428,0.657l2.218,5.316l2.551,4.144l0.988,1.172l1.057,1.017l0.356,0.436
		l0.964,0.927l0.315,0.22l0.891,0.424l2.135,0.585l0.19,0.083l0.626,0.415l0.142,0.132l0.149,0.171l0.077,0.147l0.042,0.274
		l-0.083,0.553l-1.053,3.273l-0.095,0.675l0.012,0.468l0.089,0.44l0.513,1.375l0.196,0.87l0.024,0.239l-0.012,0.245l-0.048,0.245
		l-0.137,0.338l-0.234,0.445l-0.446,0.633l-0.267,0.299l-0.238,0.189l-3.319,1.3l-6.105,4.109l-3.729,3.424l-0.863,1.031
		l-0.178,0.312l0.071,1.574L456.824,417.476z"/>
</g>
<g id="Copyright">
	<text transform="matrix(1 0 0 1 681.6426 577.5916)" class="st1 st2">© Vemaps.com</text>
</g>
</svg>
